<svg xmlns="http://www.w3.org/2000/svg" viewBox="0 0 342.13 333.78"><defs><style>.cls-1{fill:#fff;}.cls-2{fill:#939393;opacity:0.8;}</style></defs><g id="레이어_3" data-name="레이어 3"><path class="cls-1" d="M272.22,138.4s39.67,7.82,37.43-46.38-52.52-53.08-52.52-53.08S140.91,2.63,68.28,79.17c-50.32,53-45.94,126.69-38.5,167A134.36,134.36,0,0,0,65.4,315.52c26.88,27.62,75,57.42,153,46.14a115.65,115.65,0,0,0,35.93-11.37c31.31-16,92.83-56.32,107.25-132.55C381.17,114.37,344.85,163,344.85,163s-3.91,2.8-11.17,27.38-35,120.3-146.39,110.63c-57.51-5-78.85-31.06-75.29-42.32,2.93-9.27,16.65-10.52,21.93-11.86,9.09-2.3,18.94-.17,38.83,2.78C202.93,254.06,296.24,223.33,272.22,138.4Z" transform="translate(-25.27 -30.33)"/></g><g id="레이어_5" data-name="레이어 5"><path class="cls-2" d="M278.36,90.22S297,85,288.89,64.64s-53-25.53-53-25.53-27-8.89-59.46-2.67-76.88,11.12-117.77,68C31.14,142.74,32.82,201,36.86,234.94a142.34,142.34,0,0,0,30.47,73c10.7,13.18,24.08,22.48,42.89,32,45.38,23,86.63,26.17,136,4.89s78.67-58.67,78.67-58.67,40.54-40.12,35.9-119.93a.24.24,0,0,0-.47,0c-.43,10.91-2.35,37.68-11,57.72-11.11,25.78-12.89,34.22-35.11,56,0,0-36.44,35.11-68.44,46.22s-38.67,11.56-60,12c0,0-56,1.34-96.89-48.44s-20-128-20-128S84,94.67,140.44,78.67c0,0,12.45-2.23,20,1.77s70.51,28,117.92,9.78" transform="translate(-25.27 -30.33)"/></g><g id="레이어_4" data-name="레이어 4"><circle cx="231.86" cy="55.54" r="21.23"/></g></svg>