<svg id="레이어_1" data-name="레이어 1" xmlns="http://www.w3.org/2000/svg" viewBox="0 0 1079.17 77.95"><defs><style>.cls-1{fill:#fff;}.cls-2{fill:#939393;opacity:0.8;}</style></defs><path class="cls-1" d="M197.37,371.29s9.27,1.82,8.75-10.83-12.27-12.4-12.27-12.4-27.14-8.48-44.1,9.4c-11.75,12.38-10.73,29.58-9,39a31.33,31.33,0,0,0,8.31,16.2c6.28,6.45,17.51,13.41,35.74,10.78a26.87,26.87,0,0,0,8.39-2.66c7.31-3.72,21.68-13.15,25.05-30.95,4.57-24.14-3.91-12.79-3.91-12.79s-.92.65-2.61,6.39-8.18,28.1-34.19,25.84c-13.43-1.17-18.41-7.26-17.58-9.89.68-2.16,3.89-2.45,5.12-2.76,2.12-.54,4.42,0,9.07.64C181.19,398.3,203,391.12,197.37,371.29Z" transform="translate(-139.7 -346.05)"/><path class="cls-2" d="M198.73,360.73s4.26-1.19,2.4-5.83-12.08-5.83-12.08-5.83a30,30,0,0,0-13.57-.61c-7.4,1.42-17.54,2.54-26.86,15.52-6.28,8.73-5.9,22-5,29.76a32.46,32.46,0,0,0,7,16.66c2.44,3,5.5,5.13,9.79,7.31,10.35,5.25,19.76,6,31,1.12a50.13,50.13,0,0,0,17.95-13.39s9.25-9.15,8.19-27.36c0-.06-.11-.06-.11,0-.1,2.49-.54,8.6-2.51,13.17-2.53,5.88-2.94,7.81-8,12.77,0,0-8.31,8-15.61,10.55s-8.82,2.63-13.69,2.74a29.92,29.92,0,0,1-22.1-11.06c-9.33-11.35-4.56-29.19-4.56-29.19s3.45-15.31,16.32-19c0,0,2.84-.51,4.56.4s16.09,6.39,26.9,2.23" transform="translate(-139.7 -346.05)"/><circle cx="54.15" cy="12.97" r="4.96"/><path class="cls-1" d="M236.6,359h10.73v40.85h24.73l-1.22,8.8H236.6Z" transform="translate(-139.7 -346.05)"/><path class="cls-1" d="M312.62,389.93c0,11.28-6.75,19.57-18.55,19.57-11.56,0-18.31-8.25-18.31-19.37,0-11.5,7-19.63,18.79-19.63C305.52,370.5,312.62,378.24,312.62,389.93Zm-26.39.07c0,7.17,3.09,11.42,8.06,11.42s7.86-4.25,7.86-11.36c0-7.8-2.86-11.48-8-11.48C289.36,378.58,286.23,382.12,286.23,390Z" transform="translate(-139.7 -346.05)"/><path class="cls-1" d="M352.4,396.59c-1.28,6.21-5.65,12.91-16.76,12.91-11.6,0-17.56-8-17.56-19.23,0-11,6.71-19.77,18.06-19.77,12.57,0,16.06,9,16.26,13.23H342.33c-.64-3-2.36-5.15-6.39-5.15-4.72,0-7.39,4.13-7.39,11.36,0,7.93,2.83,11.55,7.35,11.55,3.54,0,5.44-2.1,6.36-4.9Z" transform="translate(-139.7 -346.05)"/><path class="cls-1" d="M394,389.93c0,11.28-6.75,19.57-18.56,19.57-11.55,0-18.3-8.25-18.3-19.37,0-11.5,7-19.63,18.79-19.63C386.88,370.5,394,378.24,394,389.93Zm-26.39.07c0,7.17,3.09,11.42,8.06,11.42s7.86-4.25,7.86-11.36c0-7.8-2.86-11.48-8-11.48C370.72,378.58,367.59,382.12,367.59,390Z" transform="translate(-139.7 -346.05)"/><path class="cls-1" d="M401.06,381c0-3.22,0-6.42-.07-9.6h9.87c.13.9.34,3,.39,4.44a11.64,11.64,0,0,1,10.36-5.31c5.36,0,8.31,2.77,9.62,5.67,2.18-3.05,5.4-5.67,11.48-5.67,6.5,0,11.81,4,11.81,13.68v24.46H444.46v-23.2c0-3.37-1.22-6.66-5.45-6.66s-6.09,2.83-6.09,8.55v21.31H422.8V385.83c0-3.86-.95-7-5.36-7-4.2,0-6.19,2.58-6.19,9v20.82H401.06Z" transform="translate(-139.7 -346.05)"/><path class="cls-1" d="M498.45,389.93c0,11.28-6.75,19.57-18.56,19.57-11.55,0-18.3-8.25-18.3-19.37,0-11.5,7-19.63,18.79-19.63C491.35,370.5,498.45,378.24,498.45,389.93Zm-26.39.07c0,7.17,3.09,11.42,8.06,11.42s7.86-4.25,7.86-11.36c0-7.8-2.86-11.48-8-11.48C475.19,378.58,472.06,382.12,472.06,390Z" transform="translate(-139.7 -346.05)"/><path class="cls-1" d="M501.69,371.37h5.75v-10.1h10.32v10.1h7.3v7.75h-7.3v18.4c0,2.83.86,3.93,3.94,3.93a18.55,18.55,0,0,0,2.35-.12v7.1a23.66,23.66,0,0,1-6.94.71c-7.27,0-9.67-3.89-9.67-10.41V379.12h-5.75Z" transform="translate(-139.7 -346.05)"/><path class="cls-1" d="M530.8,356.07h10.32v9.21H530.8Zm0,15.3h10.32v37.27H530.8Z" transform="translate(-139.7 -346.05)"/><path class="cls-1" d="M585.06,389.93c0,11.28-6.74,19.57-18.55,19.57-11.56,0-18.31-8.25-18.31-19.37,0-11.5,7-19.63,18.8-19.63C578,370.5,585.06,378.24,585.06,389.93Zm-26.38.07c0,7.17,3.08,11.42,8.05,11.42s7.86-4.25,7.86-11.36c0-7.8-2.86-11.48-8-11.48C561.8,378.58,558.68,382.12,558.68,390Z" transform="translate(-139.7 -346.05)"/><path class="cls-1" d="M592.21,380.75c0-3.16,0-6.63-.07-9.38h10a44.66,44.66,0,0,1,.4,4.74c1.27-2.34,4.28-5.61,10.81-5.61,7.49,0,12.35,5.06,12.35,14.43v23.71H615.37V386.07c0-4.19-1.39-7.22-6-7.22-4.38,0-6.89,2.43-6.89,9v20.77H592.21Z" transform="translate(-139.7 -346.05)"/><path class="cls-1" d="M653.54,408.64V359h13.31c6.2,11.15,17.66,31.25,19.94,36.66h.14c-.56-5.18-.55-13.8-.55-21.95V359h9.72v49.65H683.49c-5.34-9.7-18-32.8-20.5-38.53h-.13c.36,4.34.48,14.54.48,23.43v15.1Z" transform="translate(-139.7 -346.05)"/><path class="cls-1" d="M714,392.21c0,4.66,2.34,9.21,7.48,9.21,4.3,0,5.53-1.72,6.51-4h10.32C737,402,733,409.5,721.25,409.5c-12.27,0-17.6-9.18-17.6-19,0-11.69,6-20,18-20,12.8,0,17.15,9.26,17.15,18.56a24,24,0,0,1-.13,3.15Zm14.4-6.34c-.07-4.34-1.81-8-6.84-8s-6.93,3.41-7.34,8Z" transform="translate(-139.7 -346.05)"/><path class="cls-1" d="M778.62,397.81c0,3.59,0,7.49.07,10.83H768.58c-.15-1-.22-3-.28-4.3-2.21,3.74-5.5,5.16-10.26,5.16-7.6,0-12.45-4.62-12.45-13.86V371.37H755.9v22.2c0,4.12,1.28,7.52,5.75,7.52,4.7,0,6.65-2.51,6.65-9.89V371.37h10.32Z" transform="translate(-139.7 -346.05)"/><path class="cls-1" d="M787.91,381.47c0-3.7,0-7-.07-10.1H798c.14.83.27,4.53.27,6.54,1.65-4.26,5.62-7.37,12-7.41v9.85c-7.49-.2-12,1.82-12,12v16.25H787.91Z" transform="translate(-139.7 -346.05)"/><path class="cls-1" d="M850.31,389.93c0,11.28-6.75,19.57-18.56,19.57-11.56,0-18.3-8.25-18.3-19.37,0-11.5,7-19.63,18.79-19.63C843.21,370.5,850.31,378.24,850.31,389.93Zm-26.39.07c0,7.17,3.09,11.42,8.06,11.42s7.86-4.25,7.86-11.36c0-7.8-2.87-11.48-8-11.48C827.05,378.58,823.92,382.12,823.92,390Z" transform="translate(-139.7 -346.05)"/><path class="cls-1" d="M901,393.33c-2,9.26-9,16-21.41,16-15.75,0-23.19-11.14-23.19-25.26,0-13.61,7.68-25.81,23.7-25.81,13.22,0,19.63,7.76,20.84,16.06H890.24c-1-3.83-3.7-7.64-10.45-7.64-8.85,0-12.27,8-12.27,17,0,8.39,3,17.23,12.56,17.23,7,0,9.21-4.69,10.15-7.59Z" transform="translate(-139.7 -346.05)"/><path class="cls-1" d="M908.29,356.07h10.32v9.21H908.29Zm0,15.3h10.32v37.27H908.29Z" transform="translate(-139.7 -346.05)"/><path class="cls-1" d="M927.88,381.47c0-3.7,0-7-.08-10.1h10.13c.13.83.27,4.53.27,6.54,1.64-4.26,5.62-7.37,12-7.41v9.85c-7.49-.2-12,1.82-12,12v16.25H927.88Z" transform="translate(-139.7 -346.05)"/><path class="cls-1" d="M987.87,396.59c-1.29,6.21-5.66,12.91-16.76,12.91-11.6,0-17.57-8-17.57-19.23,0-11,6.72-19.77,18.06-19.77,12.57,0,16.06,9,16.27,13.23H977.79c-.64-3-2.36-5.15-6.39-5.15-4.71,0-7.39,4.13-7.39,11.36,0,7.93,2.83,11.55,7.35,11.55,3.55,0,5.45-2.1,6.37-4.9Z" transform="translate(-139.7 -346.05)"/><path class="cls-1" d="M1026.94,397.81c0,3.59,0,7.49.07,10.83H1016.9c-.14-1-.21-3-.28-4.3-2.21,3.74-5.5,5.16-10.26,5.16-7.59,0-12.44-4.62-12.44-13.86V371.37h10.31v22.2c0,4.12,1.27,7.52,5.74,7.52,4.71,0,6.65-2.51,6.65-9.89V371.37h10.32Z" transform="translate(-139.7 -346.05)"/><path class="cls-1" d="M1036.24,356.07h10.32v9.21h-10.32Zm0,15.3h10.32v37.27h-10.32Z" transform="translate(-139.7 -346.05)"/><path class="cls-1" d="M1052.26,371.37H1058v-10.1h10.32v10.1h7.3v7.75h-7.3v18.4c0,2.83.86,3.93,3.94,3.93a18.46,18.46,0,0,0,2.35-.12v7.1a23.62,23.62,0,0,1-6.94.71c-7.27,0-9.67-3.89-9.67-10.41V379.12h-5.75Z" transform="translate(-139.7 -346.05)"/><path class="cls-1" d="M1100.73,359h10.73v40.85h24.73l-1.23,8.8h-34.23Z" transform="translate(-139.7 -346.05)"/><path class="cls-1" d="M1173.34,399a82.75,82.75,0,0,0,.51,9.63H1164a14.88,14.88,0,0,1-.52-3.65c-1.35,2.1-3.89,4.51-10.48,4.51-9,0-12.78-5.91-12.78-11.69,0-8.49,6.82-12.41,17.75-12.41h5.32v-2.28c0-2.64-1-5.25-5.74-5.25-4.36,0-5.31,1.85-5.79,4.55h-9.81c.56-6.62,4.66-12,16-11.92,10,.06,15.41,4,15.41,12.84Zm-10-7.34h-4.21c-6.22,0-8.52,1.9-8.52,5.49,0,2.7,1.65,5,5.36,5,6.56,0,7.37-4.56,7.37-9.48Z" transform="translate(-139.7 -346.05)"/><path class="cls-1" d="M1182.68,356.07H1193v19.25c1.54-2.39,4.62-4.82,10.66-4.82,10.15,0,15.21,8.38,15.21,18.83,0,10.68-5.49,20.17-16.2,20.17-5.55,0-8-1.69-9.8-4.4a18.37,18.37,0,0,1-.4,3.54h-9.86c.07-4.05.07-8.15.07-12.19Zm25.72,33.46c0-6.21-2.31-10.76-7.89-10.76-5.89,0-8,3.83-8,11.43,0,6.28,1.86,11.1,7.87,11.1C1205.64,401.3,1208.4,396.58,1208.4,389.53Z" transform="translate(-139.7 -346.05)"/></svg>